<svg xmlns="http://www.w3.org/2000/svg" style="display: none;">

    <symbol id="icon-arrow-down" viewBox="0 0 512 512">
      <path d="M225.923,354.706c-8.098,0-16.195-3.092-22.369-9.263L9.27,151.157c-12.359-12.359-12.359-32.397,0-44.751
  			c12.354-12.354,32.388-12.354,44.748,0l171.905,171.915l171.906-171.909c12.359-12.354,32.391-12.354,44.744,0
  			c12.365,12.354,12.365,32.392,0,44.751L248.292,345.449C242.115,351.621,234.018,354.706,225.923,354.706z"/>
    </symbol>

    <symbol id="icon-linkedin" enable-background="new 0 0 24 24" viewBox="0 0 24 24">
      <path d="m23.994 24v-.001h.006v-8.802c0-4.306-.927-7.623-5.961-7.623-2.42 0-4.044 1.328-4.707 2.587h-.07v-2.185h-4.773v16.023h4.97v-7.934c0-2.089.396-4.109 2.983-4.109 2.549 0 2.587 2.384 2.587 4.243v7.801z"/>
      <path d="m.396 7.977h4.976v16.023h-4.976z"/>
      <path d="m2.882 0c-1.591 0-2.882 1.291-2.882 2.882s1.291 2.909 2.882 2.909 2.882-1.318 2.882-2.909c-.001-1.591-1.292-2.882-2.882-2.882z"/>
    </symbol>

    <symbol id="icon-github" enable-background="new 0 0 24 24" viewBox="0 0 24 24">
      <path d="m12 .5c-6.63 0-12 5.28-12 11.792 0 5.211 3.438 9.63 8.205 11.188.6.111.82-.254.82-.567 0-.28-.01-1.022-.015-2.005-3.338.711-4.042-1.582-4.042-1.582-.546-1.361-1.335-1.725-1.335-1.725-1.087-.731.084-.716.084-.716 1.205.082 1.838 1.215 1.838 1.215 1.07 1.803 2.809 1.282 3.495.981.108-.763.417-1.282.76-1.577-2.665-.295-5.466-1.309-5.466-5.827 0-1.287.465-2.339 1.235-3.164-.135-.298-.54-1.497.105-3.121 0 0 1.005-.316 3.3 1.209.96-.262 1.98-.392 3-.398 1.02.006 2.04.136 3 .398 2.28-1.525 3.285-1.209 3.285-1.209.645 1.624.24 2.823.12 3.121.765.825 1.23 1.877 1.23 3.164 0 4.53-2.805 5.527-5.475 5.817.42.354.81 1.077.81 2.182 0 1.578-.015 2.846-.015 3.229 0 .309.21.678.825.56 4.801-1.548 8.236-5.97 8.236-11.173 0-6.512-5.373-11.792-12-11.792z"/>
    </symbol>

    <symbol id="icon-email" enable-background="new 0 0 512 512" viewBox="0 0 512 512" >
      <path d="M10.688,95.156C80.958,154.667,204.26,259.365,240.5,292.01c4.865,4.406,10.083,6.646,15.5,6.646
				c5.406,0,10.615-2.219,15.469-6.604c36.271-32.677,159.573-137.385,229.844-196.896c4.375-3.698,5.042-10.198,1.5-14.719
				C494.625,69.99,482.417,64,469.333,64H42.667c-13.083,0-25.292,5.99-33.479,16.438C5.646,84.958,6.313,91.458,10.688,95.156z"/>
			<path d="M505.813,127.406c-3.781-1.76-8.229-1.146-11.375,1.542C416.51,195.01,317.052,279.688,285.76,307.885
				c-17.563,15.854-41.938,15.854-59.542-0.021c-33.354-30.052-145.042-125-208.656-178.917c-3.167-2.688-7.625-3.281-11.375-1.542
				C2.417,129.156,0,132.927,0,137.083v268.25C0,428.865,19.135,448,42.667,448h426.667C492.865,448,512,428.865,512,405.333
				v-268.25C512,132.927,509.583,129.146,505.813,127.406z"/>
    </symbol>

    <symbol id="icon-download" enable-background="new 0 0 512 512" viewBox="0 0 512 512" >
      <path d="m409.785156 278.5-153.785156 153.785156-153.785156-153.785156 28.285156-28.285156 105.5 105.5v-355.714844h40v355.714844l105.5-105.5zm102.214844 193.5h-512v40h512zm0 0"/>
    </symbol>

    <symbol id="icon-separator" enable-background="new 0 0 1440 270" viewBox="0 0 1440 270" xml:space="preserve">
      <polygon fill="#FFFFFF" points="1440,0 0,230 0,270 1440,40 "></polygon>
    </symbol>

    <symbol id="icon-account-group" viewBox="0 0 512 512">
      <path d="m256 301l0-41c7-7 19-24 21-60 10-5 16-16 16-30 0-12-4-22-12-28 7-13 18-37 12-60-7-28-48-39-81-39-29 0-65 8-77 30-12-1-20 2-26 9-15 16-8 46-4 62 1 2 2 4 2 5l0 42c0 41 24 63 42 71l0 39c-8 3-17 7-26 10-56 20-104 37-112 64-11 31-11 102-11 105 0 6 5 11 11 11l384 0c6 0 10-5 10-11 0-3 0-74-10-105-11-31-69-48-139-74z m-235 168c1-20 3-66 10-88 5-16 57-35 99-50 12-4 23-8 34-12 4-2 7-6 7-10l0-54c0-4-3-9-8-10-1 0-35-12-35-54l0-42c0-3-1-5-2-11-2-8-9-34-2-41 3-4 11-3 15-2 6 1 11-2 13-8 3-13 29-22 60-22 31 0 57 9 60 22 5 17-6 37-11 48-3 6-5 10-5 14 0 5 5 10 11 10 3 0 5 6 5 11 0 4-2 11-5 11-6 0-11 4-11 10 0 43-16 55-16 55-3 2-5 6-5 9l0 54c0 4 2 8 7 10 51 19 125 41 132 62 8 22 9 68 10 88l-363 0z m480-94c-8-25-49-51-138-84l0-20c7-7 19-25 21-61 4-2 7-5 10-9 4-5 6-13 6-20 0-13-5-23-13-28 7-15 19-41 13-64-4-15-21-31-40-39-19-7-38-6-54 5-5 3-6 10-3 15 3 4 10 6 15 3 12-9 25-6 34-3 15 6 25 18 27 24 4 17-6 40-12 52-3 6-4 10-4 13 0 3 1 6 3 8 2 2 4 3 7 3 4 0 6 6 6 11 0 3-1 6-3 8-1 2-2 2-3 2-6 0-10 5-10 11 0 43-17 55-17 55-3 2-5 5-5 9l0 32c0 4 3 8 7 10 83 31 127 56 133 73 7 22 9 68 10 88l-43 0c-6 0-11 5-11 11 0 6 5 11 11 11l53 0c6 0 11-5 11-11 0-3 0-74-11-105z"/>
    </symbol>

    <symbol id="icon-arrow-left" viewBox="0 0 512 512">
      <path d="M166.559,248.292L360.846,442.573c12.359,12.365,32.397,12.365,44.75,0c12.354-12.354,12.354-32.391,0-44.744L233.682,225.92L405.591,54.017c12.354-12.359 12.354-32.394,0-44.748c-12.354-12.359-32.391-12.359-44.75,0l-194.287,194.284c-6.177,6.18-9.262,14.271-9.262,22.366C157.292,234.018,160.383,242.115,166.559,248.292z"/>
    </symbol>

    <symbol id="icon-arrow-right" viewBox="0 0 512 512">
      <path d="M345.441,248.292L151.154,442.573c-12.359,12.365-32.397,12.365-44.75,0c-12.354-12.354-12.354-32.391,0-44.744
    		L278.318,225.92L106.409,54.017c-12.354-12.359-12.354-32.394,0-44.748c12.354-12.359,32.391-12.359,44.75,0l194.287,194.284
    		c6.177,6.18,9.262,14.271,9.262,22.366C354.708,234.018,351.617,242.115,345.441,248.292z"/>
    </symbol>

    <symbol id="icon-dotted-triangle" viewBox="0 0 564.295 564.295" x="0px" y="0px" style="enable-background:new 0 0 564.295 564.295;">
      <g>
    		<path d="M330.303,192.621c-22.812,0-41.371,18.559-41.371,41.371c0,22.812,18.559,41.372,41.371,41.372
    			s41.371-18.559,41.371-41.372C371.674,211.18,353.115,192.621,330.303,192.621z"/>
    		<path d="M426.613,481.553c-22.812,0-41.371,18.559-41.371,41.371s18.559,41.371,41.371,41.371s41.371-18.559,41.371-41.371
    			S449.422,481.553,426.613,481.553z"/>
    		<path d="M330.303,96.31c-22.812,0-41.371,18.559-41.371,41.372c0,22.812,18.559,41.371,41.371,41.371s41.371-18.559,41.371-41.371
    			C371.674,114.869,353.115,96.31,330.303,96.31z"/>
    		<path d="M330.303,288.932c-22.812,0-41.371,18.559-41.371,41.371s18.559,41.371,41.371,41.371s41.371-18.559,41.371-41.371
    			S353.115,288.932,330.303,288.932z"/>
    		<path d="M330.303,385.242c-22.812,0-41.371,18.559-41.371,41.371s18.559,41.371,41.371,41.371s41.371-18.559,41.371-41.371
    			S353.115,385.242,330.303,385.242z"/>
    		<path d="M426.613,385.242c-22.812,0-41.371,18.559-41.371,41.371s18.559,41.371,41.371,41.371s41.371-18.559,41.371-41.371
    			S449.422,385.242,426.613,385.242z"/>
    		<path d="M96.311,282.146c0,22.812,18.559,41.371,41.371,41.371c22.812,0,41.372-18.559,41.372-41.371
    			c0-22.812-18.559-41.371-41.372-41.371C114.87,240.776,96.311,259.335,96.311,282.146z"/>
    		<path d="M233.992,192.621c-22.812,0-41.371,18.559-41.371,41.371c0,22.812,18.559,41.372,41.371,41.372
    			s41.371-18.559,41.371-41.372C275.363,211.18,256.805,192.621,233.992,192.621z"/>
    		<path d="M233.992,288.932c-22.812,0-41.371,18.559-41.371,41.371s18.559,41.371,41.371,41.371s41.371-18.559,41.371-41.371
    			S256.805,288.932,233.992,288.932z"/>
    		<path d="M426.613,288.932c-22.812,0-41.371,18.559-41.371,41.371s18.559,41.371,41.371,41.371s41.371-18.559,41.371-41.371
    			S449.422,288.932,426.613,288.932z"/>
    		<path d="M426.613,192.621c-22.812,0-41.371,18.559-41.371,41.371c0,22.812,18.559,41.372,41.371,41.372
    			s41.371-18.559,41.371-41.372C467.984,211.18,449.422,192.621,426.613,192.621z"/>
    		<path d="M426.613,96.31c-22.812,0-41.371,18.559-41.371,41.372c0,22.812,18.559,41.371,41.371,41.371s41.371-18.559,41.371-41.371
    			C467.984,114.869,449.422,96.31,426.613,96.31z"/>
    		<path d="M426.613,0c-22.812,0-41.371,18.559-41.371,41.371c0,22.812,18.559,41.371,41.371,41.371s41.371-18.559,41.371-41.371
    			C467.984,18.559,449.422,0,426.613,0z"/>
    	</g>
    </symbol>
</svg>
